<?xml version="1.0" standalone="no"?>
<!DOCTYPE svg PUBLIC "-//W3C//DTD SVG 20010904//EN"
 "http://www.w3.org/TR/2001/REC-SVG-20010904/DTD/svg10.dtd">
<svg version="1.0" xmlns="http://www.w3.org/2000/svg"
 width="512.000000pt" height="512.000000pt" viewBox="0 0 512.000000 512.000000"
 preserveAspectRatio="xMidYMid meet">

<g transform="translate(0.000000,512.000000) scale(0.100000,-0.100000)"
fill="#000000" stroke="none">
<path d="M1972 3223 c-18 -9 -45 -32 -60 -51 l-27 -35 0 -577 0 -577 27 -35
c53 -70 34 -68 648 -68 614 0 595 -2 648 68 l27 35 0 577 0 577 -27 35 c-54
70 -33 68 -650 68 -491 0 -557 -2 -586 -17z m928 -663 l0 -340 -340 0 -340 0
0 340 0 340 340 0 340 0 0 -340z"/>
<path d="M1190 2560 l0 -510 175 0 175 0 0 510 0 510 -175 0 -175 0 0 -510z"/>
<path d="M3580 2560 l0 -510 175 0 175 0 0 510 0 510 -175 0 -175 0 0 -510z"/>
<path d="M510 2560 l0 -340 170 0 170 0 0 340 0 340 -170 0 -170 0 0 -340z"/>
<path d="M4270 2560 l0 -340 170 0 170 0 0 340 0 340 -170 0 -170 0 0 -340z"/>
</g>
</svg>
